# xmcd CD database file
#
# Track frame offsets:
#	150
#	13308
#	38897
#	58400
#	95697
#	111603
#	135681
#	159267
#	175080
#	201255
#	232299
#	260902
#	281917
#
# Disc length: 4206 seconds
#
# Revision: 0
# Processed by: cddbd v1.5.2PL0 Copyright (c) Steve Scherf et al.
# Submitted via: CDex 1.81
#
DISCID=d2106c0d
DTITLE=Slaughterhouse Seven and Co. - A Bakers Dozen
DYEAR=2005
DGENRE=Jazz
TTITLE0=Dippermouth Blues
TTITLE1=I Can't Get Started
TTITLE2=I've Found a New Baby
TTITLE3=St. Louis Blues
TTITLE4=Chimes Blues
TTITLE5=St.James Infirmary
TTITLE6=Five Foot Two
TTITLE7=Mood Indigo
TTITLE8=Embraceable You
TTITLE9=Ja-Da
TTITLE10=Everybody Loves My Baby
TTITLE11=Anything Really
TTITLE12=The Saint's Go Marching In - My Evaline
EXTD=YEAR: 2005
EXTT0=
EXTT1=
EXTT2=
EXTT3=
EXTT4=
EXTT5=
EXTT6=
EXTT7=
EXTT8=
EXTT9=
EXTT10=
EXTT11=
EXTT12=
PLAYORDER=
